<svg width="281" height="50" viewBox="0 0 281 50" fill="none" xmlns="http://www.w3.org/2000/svg">
<path d="M14.189 0.0795424C10.6223 0.0591649 7.07012 1.45277 4.33283 4.25688C-1.15304 9.87308 -1.2054 19.0382 4.21594 24.7167L24.7682 46.2887C24.9344 46.465 25.1345 46.606 25.3541 46.7022C25.5754 46.7984 25.8098 46.8496 26.0493 46.8509C26.2888 46.8523 26.5269 46.8054 26.7461 46.7102C26.9684 46.6165 27.1685 46.4777 27.3383 46.3034L48.1647 24.9678C53.6441 19.3564 53.7285 10.2156 48.3103 4.53709C48.224 4.44974 48.1297 4.37038 48.0288 4.30225C45.3453 1.63123 41.8795 0.281179 38.4093 0.261353C34.8443 0.240984 31.2744 1.62483 28.5404 4.42414L26.6956 6.30844L26.7004 6.3133L26.2963 6.71795L25.8952 6.3087L25.9 6.3039L24.0785 4.39865C21.3686 1.5602 17.7893 0.106547 14.2147 0.0796893C14.2066 0.0796434 14.1986 0.0795975 14.189 0.0795424ZM47.9078 4.94497L47.9046 4.94173L48.3087 4.53547L47.9078 4.94497Z" fill="#DFD7C5"/>
<path fill-rule="evenodd" clip-rule="evenodd" d="M52.1972 13.0635L0.287365 12.7669C-0.211217 16.9975 1.09467 21.4145 4.21267 24.6781L24.7475 46.2161C24.9135 46.3921 25.1134 46.533 25.3329 46.629C25.554 46.725 25.7882 46.7761 26.0275 46.7775C26.2667 46.7788 26.5047 46.732 26.7237 46.6369C26.9458 46.5434 27.1458 46.4048 27.3154 46.2308L48.1239 24.9289C51.28 21.6991 52.6447 17.2981 52.1972 13.0635Z" fill="white"/>
<path d="M0.301516 16.6986C2.83614 16.0725 6.64978 15.3319 9.59341 14.7961L0.182608 14.7423C0.178883 15.3942 0.21851 16.0479 0.301516 16.6986ZM3.01241 23.4475C6.44606 22.0352 10.8825 20.2283 12.136 19.8046C13.6357 19.2958 15.5282 18.328 16.7459 17.7087C17.2533 17.4506 17.6431 17.251 17.8395 17.1672C18.3192 16.9665 21.7717 15.6249 23.7 14.8767L16.5214 14.8357C12.2533 15.8572 4.43637 17.9235 0.759474 18.9035C1.22726 20.5126 1.97808 22.0561 3.01241 23.4475ZM9.84787 30.694C11.7634 29.3563 16.5274 25.5908 16.5274 25.5908C16.5274 25.5908 20.1147 22.5858 21.7735 22.0651C22.7356 21.7647 23.5575 20.9766 24.4198 20.1502C25.0416 19.5532 25.6875 18.9338 26.4225 18.4639C27.7233 17.6289 30.2744 15.8064 31.5065 14.9197L27.2122 14.8952C22.5519 16.5327 18.502 18.707 15.765 20.1729C14.3555 20.9304 13.2955 21.4993 12.6792 21.712C11.6783 22.0571 7.99084 23.7546 4.65268 25.3196L9.84787 30.694ZM17.3038 38.4117C17.8941 37.6911 18.482 36.8199 19.1315 35.8547C20.1973 34.2767 21.4315 32.4467 23.1186 30.6192C24.9657 28.6213 26.1334 27.1817 27.2914 25.7564C27.8155 25.1091 28.3379 24.4651 28.9232 23.7717C30.4189 21.9944 32.2306 20.0107 33.9404 18.1385L33.9404 18.1369C34.9683 17.0104 35.9605 15.9254 36.8253 14.9501L33.7676 14.9326C31.9397 16.3829 26.7384 20.5239 25.542 21.635C24.6394 22.4723 21.0417 25.3411 17.8876 27.8569C15.9451 29.4058 14.1705 30.8212 13.2959 31.5465C12.8424 31.9219 12.3487 32.3243 11.8276 32.7426L17.3038 38.4117ZM32.0135 41.4299C32.9302 37.5448 34.1348 33.3025 34.9693 31.4445C36.0771 28.9763 36.8394 26.8312 37.5037 24.9611C37.786 24.1683 38.0489 23.4234 38.3146 22.7266C39.0614 20.7656 39.4893 19.2257 39.896 17.7609C40.155 16.8302 40.4043 15.9299 40.7229 14.9724L38.4778 14.9595C37.4024 17.0996 35.7401 18.8119 34.4105 20.1833C33.4832 21.139 32.7191 21.9274 32.4247 22.5808C32.0587 23.3988 30.6616 25.0613 29.2321 26.7653C27.7591 28.5187 26.2504 30.3152 25.7936 31.2768C25.254 32.406 23.1711 35.1986 21.7308 37.1284L21.7292 37.13C21.0543 38.0343 20.5218 38.7488 20.3533 39.0153C20.0243 39.5388 19.6985 40.0526 19.3777 40.5569L24.7676 46.1358C24.9353 46.3098 25.1352 46.4486 25.3547 46.5428C25.5758 46.6386 25.8116 46.6896 26.0509 46.6909C26.2901 46.6923 26.5265 46.6456 26.7471 46.5508C26.9692 46.4591 27.1691 46.3225 27.3387 46.1505L32.0135 41.4299ZM46.183 27.1136L35.9274 37.4754C36.718 34.0203 37.8058 30.5462 38.7186 27.6268C39.3304 25.6714 39.8637 23.9655 40.1778 22.6828C40.5083 21.3393 41.0382 19.3915 41.7846 16.6441L41.7846 16.6425C41.9257 16.118 42.0766 15.5663 42.2341 14.9826L44.4921 14.9955C44.6216 16.4986 45.0127 20.8525 45.2054 21.6913C45.6536 23.6318 45.9468 25.4546 46.183 27.1136ZM51.3847 20.0977C51.0877 19.5274 50.8464 19.0247 50.6211 18.5525C50.0498 17.356 49.5721 16.3587 48.5374 15.0186L45.9904 15.0041C46.3362 16.8912 47.54 23.468 47.9227 25.357L48.1634 25.1149C49.6172 23.6449 50.6917 21.9292 51.3847 20.0977ZM52.3226 15.0402L50.6043 15.0304C51.1405 15.6197 51.6696 16.3451 52.1698 17.0622C52.2667 16.3917 52.3188 15.7161 52.3226 15.0402ZM52.0922 12.3722C52.1902 12.9173 52.2561 13.467 52.2915 14.0166L0.225391 13.7191C0.277367 13.0547 0.372694 12.3922 0.514538 11.7395C1.99919 11.0529 3.51235 10.4337 5.05243 9.88352C8.54601 8.6638 12.5471 9.9776 15.3234 10.8904C15.7899 11.0436 16.2211 11.1854 16.6107 11.303C18.4369 11.8307 20.3124 12.1634 22.2083 12.2895C22.6306 12.316 23.6408 12.027 24.7732 11.7036C26.2178 11.2922 27.8602 10.8211 28.7367 10.8773C29.5411 10.9268 30.4965 11.2237 31.4199 11.5093C32.2905 11.7785 33.1305 12.0396 33.7888 12.077C36.6882 12.2441 40.0195 11.3262 41.0674 10.6258C42.3539 9.7635 45.8184 8.85593 48.2289 10.2695C50.0872 11.3613 51.2545 11.9686 52.0922 12.3722Z" fill="url(#paint0_linear)"/>
<path d="M60.5905 18.5316L62.3996 18.3873V4.48034L60.5905 4.33605V3.34825H72.7105V6.89991H71.534L71.4341 4.48034H63.7204V10.7956H70.4685V11.9388H63.7204V18.3873L65.5295 18.5316V19.5083H60.5905V18.5316ZM82.7551 19.5083C82.6663 19.1013 82.6034 18.7499 82.5664 18.4539C82.5294 18.1579 82.5109 17.8583 82.5109 17.5549C82.0669 18.1838 81.475 18.7055 80.7351 19.1198C79.9951 19.5342 79.1627 19.7414 78.2378 19.7414C77.0613 19.7414 76.1512 19.438 75.5075 18.8313C74.8637 18.2245 74.5419 17.4032 74.5419 16.3673C74.5419 15.2574 75.0191 14.3769 75.9736 13.7258C76.9281 13.0746 78.223 12.749 79.8582 12.749H82.5109V11.1619C82.5109 10.3036 82.2334 9.63025 81.6785 9.14189C81.1309 8.65354 80.3614 8.40936 79.3699 8.40936C78.704 8.40936 78.0935 8.50185 77.5386 8.68684C76.991 8.86442 76.5323 9.10859 76.1623 9.41937L76.0513 11.0287H74.9525L74.9636 8.72013C75.5186 8.29097 76.1808 7.94321 76.9503 7.67683C77.7272 7.41046 78.5523 7.27727 79.4254 7.27727C80.7499 7.27727 81.8154 7.61394 82.6219 8.28727C83.4284 8.96061 83.8317 9.92622 83.8317 11.1841V17.0887C83.8317 17.3329 83.8354 17.5697 83.8428 17.7991C83.8576 18.021 83.8835 18.2393 83.9205 18.4539L85.1191 18.5316V19.5083H82.7551ZM78.3821 18.5649C79.344 18.5649 80.1912 18.3429 80.9237 17.899C81.6563 17.455 82.1853 16.8816 82.5109 16.1786V13.7701H79.836C78.63 13.7701 77.6644 14.0217 76.9392 14.5249C76.2215 15.0206 75.8626 15.6496 75.8626 16.4117C75.8626 17.0554 76.0846 17.5771 76.5286 17.9766C76.9799 18.3688 77.5978 18.5649 78.3821 18.5649ZM89.8806 7.49925L90.0471 9.49706V9.64134C90.3874 8.90141 90.8499 8.32427 91.4344 7.90991C92.0264 7.48815 92.7256 7.27727 93.5321 7.27727C93.7023 7.27727 93.8651 7.29207 94.0205 7.32167C94.1833 7.34386 94.3165 7.36976 94.4201 7.39936L94.2425 8.64244L93.2547 8.57585C92.4185 8.57585 91.7304 8.81262 91.1903 9.28618C90.6575 9.75233 90.2764 10.3961 90.0471 11.2174V18.3873L91.8562 18.5316V19.5083H86.9172V18.5316L88.7263 18.3873V8.63134L86.9172 8.48705V7.49925H88.7263H89.8806ZM95.8629 8.48705V7.49925H98.8485L98.9706 9.48596C99.3554 8.78303 99.8696 8.23918 100.513 7.85441C101.157 7.46965 101.923 7.27727 102.811 7.27727C103.728 7.27727 104.494 7.50295 105.108 7.95431C105.722 8.39826 106.163 9.079 106.429 9.99651C106.792 9.15299 107.306 8.49075 107.972 8.0098C108.645 7.52145 109.463 7.27727 110.425 7.27727C111.705 7.27727 112.693 7.70273 113.388 8.55365C114.091 9.40457 114.443 10.7216 114.443 12.5049V18.3762L116.252 18.5316V19.5083H111.29V18.5316L113.1 18.3762V12.4827C113.1 11.0028 112.837 9.95951 112.312 9.35277C111.794 8.73863 111.068 8.43156 110.136 8.43156C109.1 8.43156 108.301 8.76083 107.739 9.41937C107.184 10.0779 106.84 10.9177 106.707 11.9388C106.707 11.998 106.707 12.0535 106.707 12.1053C106.714 12.1571 106.718 12.2237 106.718 12.3051V18.3873L108.527 18.5316V19.5083H103.577V18.5316L105.386 18.3873V12.4827C105.386 11.0324 105.119 9.99651 104.587 9.37497C104.061 8.74603 103.336 8.43156 102.411 8.43156C101.464 8.43156 100.713 8.67204 100.158 9.15299C99.6107 9.62655 99.2259 10.2666 99.0039 11.0731V18.3873L100.813 18.5316V19.5083H95.8629V18.5316L97.672 18.3873V8.63134L95.8629 8.48705ZM123.144 18.5316L124.953 18.3873V4.48034L123.144 4.33605V3.34825H135.264V6.89991H134.088L133.988 4.48034H126.274V10.7956H133.022V11.9388H126.274V18.3873L128.083 18.5316V19.5083H123.144V18.5316ZM139.981 7.49925L140.148 9.49706V9.64134C140.488 8.90141 140.951 8.32427 141.535 7.90991C142.127 7.48815 142.826 7.27727 143.633 7.27727C143.803 7.27727 143.966 7.29207 144.121 7.32167C144.284 7.34386 144.417 7.36976 144.521 7.39936L144.343 8.64244L143.355 8.57585C142.519 8.57585 141.831 8.81262 141.291 9.28618C140.758 9.75233 140.377 10.3961 140.148 11.2174V18.3873L141.957 18.5316V19.5083H137.018V18.5316L138.827 18.3873V8.63134L137.018 8.48705V7.49925H138.827H139.981ZM151.324 19.7414C149.815 19.7414 148.564 19.1901 147.573 18.0876C146.581 16.9777 146.086 15.5682 146.086 13.8589V13.2485C146.086 11.5319 146.578 10.1075 147.562 8.97541C148.553 7.84332 149.748 7.27727 151.147 7.27727C152.619 7.27727 153.777 7.74343 154.621 8.67574C155.464 9.60805 155.886 10.8511 155.886 12.405V13.5371H147.406V13.8589C147.406 15.2056 147.765 16.3377 148.483 17.2552C149.208 18.1653 150.155 18.6204 151.324 18.6204C152.146 18.6204 152.849 18.5057 153.433 18.2763C154.018 18.0469 154.517 17.7177 154.931 17.2885L155.498 18.1986C155.046 18.6722 154.476 19.0495 153.788 19.3307C153.1 19.6045 152.279 19.7414 151.324 19.7414ZM151.147 8.40936C150.17 8.40936 149.345 8.78673 148.672 9.54145C148.006 10.2888 147.617 11.2285 147.506 12.3606L147.528 12.4161H154.565V12.0831C154.565 11.0398 154.258 10.1667 153.644 9.46376C153.03 8.76083 152.197 8.40936 151.147 8.40936ZM166.974 11.2063H165.886L165.731 9.50816C165.398 9.16039 164.976 8.89032 164.465 8.69793C163.962 8.50555 163.381 8.40936 162.723 8.40936C161.754 8.40936 161.025 8.62024 160.536 9.042C160.055 9.45636 159.815 9.94472 159.815 10.5071C159.815 11.062 160.022 11.5208 160.437 11.8833C160.858 12.2459 161.694 12.5641 162.945 12.8378C164.373 13.156 165.442 13.5926 166.152 14.1475C166.863 14.6951 167.218 15.4424 167.218 16.3895C167.218 17.3884 166.811 18.1986 165.997 18.8202C165.191 19.4343 164.121 19.7414 162.79 19.7414C161.902 19.7414 161.091 19.6193 160.359 19.3751C159.634 19.1235 159.005 18.7721 158.472 18.3207V15.9011H159.549L159.737 17.6104C160.092 17.9655 160.54 18.2245 161.08 18.3873C161.628 18.5427 162.198 18.6204 162.79 18.6204C163.751 18.6204 164.51 18.4095 165.065 17.9877C165.62 17.566 165.897 17.0554 165.897 16.4561C165.897 15.8937 165.664 15.4017 165.198 14.9799C164.739 14.5582 163.907 14.2141 162.701 13.9477C161.273 13.637 160.211 13.2263 159.515 12.7158C158.827 12.1978 158.483 11.4764 158.483 10.5515C158.483 9.63394 158.872 8.86072 159.649 8.23178C160.425 7.59544 161.45 7.27727 162.723 7.27727C163.603 7.27727 164.406 7.41416 165.131 7.68793C165.864 7.95431 166.46 8.31687 166.918 8.77563L166.974 11.2063ZM169.26 3.18176V2.19396H172.39V9.55255C172.79 8.83482 173.322 8.27617 173.988 7.87661C174.654 7.47705 175.431 7.27727 176.319 7.27727C177.584 7.27727 178.554 7.66943 179.227 8.45376C179.908 9.23808 180.248 10.4553 180.248 12.1053V18.3873L182.057 18.5316V19.5083H177.107V18.5316L178.916 18.3873V12.0831C178.916 10.7808 178.657 9.84852 178.139 9.28618C177.629 8.71643 176.922 8.43156 176.019 8.43156C175.109 8.43156 174.347 8.67204 173.733 9.15299C173.126 9.62655 172.679 10.2592 172.39 11.0509V18.3873L174.199 18.5316V19.5083H169.26V18.5316L171.069 18.3873V3.32605L169.26 3.18176Z" fill="#38420E"/>
<path d="M60.424 42.566L62.1443 42.233V30.6346L60.424 30.3017V28.3482H73.2877V32.7767H70.8015L70.6572 30.8455H65.3852V35.2962H71.0457V37.7934H65.3852V42.233L67.1167 42.566V44.5083H60.424V42.566ZM74.3088 38.3928C74.3088 36.6022 74.8082 35.1371 75.8071 33.9976C76.8134 32.8507 78.2008 32.2773 79.9692 32.2773C81.7451 32.2773 83.1324 32.847 84.1313 33.9865C85.1376 35.126 85.6408 36.5948 85.6408 38.3928V38.6259C85.6408 40.4313 85.1376 41.9037 84.1313 43.0432C83.1324 44.1753 81.7525 44.7414 79.9914 44.7414C78.2082 44.7414 76.8134 44.1753 75.8071 43.0432C74.8082 41.9037 74.3088 40.4313 74.3088 38.6259V38.3928ZM77.5497 38.6259C77.5497 39.721 77.742 40.6015 78.1268 41.2674C78.5116 41.9259 79.1331 42.2552 79.9914 42.2552C80.8275 42.2552 81.438 41.9222 81.8228 41.2563C82.2149 40.5904 82.411 39.7136 82.411 38.6259V38.3928C82.411 37.3273 82.2149 36.4579 81.8228 35.7845C81.4306 35.1112 80.8128 34.7745 79.9692 34.7745C79.1257 34.7745 78.5116 35.1112 78.1268 35.7845C77.742 36.4579 77.5497 37.3273 77.5497 38.3928V38.6259ZM87.0504 38.3928C87.0504 36.6022 87.5498 35.1371 88.5487 33.9976C89.555 32.8507 90.9424 32.2773 92.7108 32.2773C94.4866 32.2773 95.874 32.847 96.8729 33.9865C97.8792 35.126 98.3824 36.5948 98.3824 38.3928V38.6259C98.3824 40.4313 97.8792 41.9037 96.8729 43.0432C95.874 44.1753 94.494 44.7414 92.733 44.7414C90.9498 44.7414 89.555 44.1753 88.5487 43.0432C87.5498 41.9037 87.0504 40.4313 87.0504 38.6259V38.3928ZM90.2912 38.6259C90.2912 39.721 90.4836 40.6015 90.8684 41.2674C91.2532 41.9259 91.8747 42.2552 92.733 42.2552C93.5691 42.2552 94.1796 41.9222 94.5643 41.2563C94.9565 40.5904 95.1526 39.7136 95.1526 38.6259V38.3928C95.1526 37.3273 94.9565 36.4579 94.5643 35.7845C94.1722 35.1112 93.5543 34.7745 92.7108 34.7745C91.8673 34.7745 91.2532 35.1112 90.8684 35.7845C90.4836 36.4579 90.2912 37.3273 90.2912 38.3928V38.6259ZM107.606 43.0432C107.228 43.5982 106.781 44.0199 106.263 44.3085C105.752 44.5971 105.168 44.7414 104.509 44.7414C103.029 44.7414 101.879 44.2012 101.057 43.1209C100.243 42.0406 99.8363 40.6126 99.8363 38.8367V38.6037C99.8363 36.7094 100.247 35.1815 101.068 34.0198C101.89 32.8581 103.044 32.2773 104.531 32.2773C105.131 32.2773 105.671 32.4105 106.152 32.6768C106.633 32.9358 107.054 33.3058 107.417 33.7867V29.4803L105.685 29.1474V27.194H107.417H110.658V42.233L112.212 42.566V44.5083H107.85L107.606 43.0432ZM103.077 38.8367C103.077 39.8874 103.251 40.7162 103.599 41.3229C103.954 41.9222 104.531 42.2219 105.33 42.2219C105.804 42.2219 106.215 42.1257 106.562 41.9333C106.91 41.741 107.195 41.4635 107.417 41.1009V36.0065C107.195 35.6218 106.91 35.3258 106.562 35.1186C106.222 34.904 105.819 34.7967 105.353 34.7967C104.561 34.7967 103.984 35.1482 103.621 35.8511C103.259 36.5541 103.077 37.4716 103.077 38.6037V38.8367ZM125.997 28.3482C127.832 28.3482 129.271 28.77 130.314 29.6135C131.357 30.4496 131.879 31.6076 131.879 33.0875C131.879 33.9014 131.661 34.608 131.224 35.2074C130.788 35.8067 130.148 36.2914 129.304 36.6614C130.259 36.9425 130.943 37.4124 131.357 38.0709C131.779 38.7221 131.99 39.5323 131.99 40.5016V41.3229C131.99 41.6781 132.06 41.9555 132.201 42.1553C132.341 42.3477 132.575 42.4624 132.9 42.4994L133.3 42.5549V44.5083H131.624C130.566 44.5083 129.822 44.2234 129.393 43.6537C128.964 43.0839 128.749 42.3477 128.749 41.445V40.5238C128.749 39.7395 128.538 39.1253 128.116 38.6814C127.702 38.23 127.114 37.9932 126.352 37.971H123.699V42.233L125.43 42.566V44.5083H118.738V42.566L120.458 42.233V30.6346L118.738 30.3017V28.3482H120.458H125.997ZM123.699 35.4738H125.941C126.844 35.4738 127.521 35.2814 127.972 34.8966C128.423 34.5119 128.649 33.9569 128.649 33.2318C128.649 32.5066 128.423 31.9295 127.972 31.5003C127.528 31.0638 126.87 30.8455 125.997 30.8455H123.699V35.4738ZM140.192 44.7414C138.461 44.7414 137.077 44.1864 136.041 43.0765C135.005 41.9666 134.487 40.5571 134.487 38.8478V38.4039C134.487 36.6207 134.976 35.1519 135.952 33.9976C136.936 32.8433 138.253 32.2699 139.904 32.2773C141.524 32.2773 142.782 32.7656 143.677 33.7423C144.572 34.719 145.02 36.0398 145.02 37.7047V39.4694H137.85L137.828 39.536C137.887 40.3277 138.15 40.9788 138.616 41.4894C139.09 41.9999 139.73 42.2552 140.536 42.2552C141.254 42.2552 141.85 42.1849 142.323 42.0443C142.797 41.8964 143.315 41.667 143.877 41.3562L144.754 43.354C144.258 43.7462 143.614 44.0754 142.823 44.3418C142.038 44.6082 141.161 44.7414 140.192 44.7414ZM139.904 34.7745C139.304 34.7745 138.831 35.0039 138.483 35.4627C138.135 35.9214 137.92 36.5245 137.839 37.2718L137.872 37.3273H141.846V37.0387C141.846 36.3506 141.683 35.803 141.357 35.3961C141.039 34.9817 140.555 34.7745 139.904 34.7745ZM146.219 29.1474V27.194H151.191V42.233L152.756 42.566V44.5083H146.385V42.566L147.95 42.233V29.4803L146.219 29.1474ZM153.722 42.566L155.287 42.233V34.7856L153.555 34.4527V32.4992H158.528V42.233L160.081 42.566V44.5083H153.722V42.566ZM158.528 29.6246H155.287V27.194H158.528V29.6246ZM166.896 44.7414C165.165 44.7414 163.781 44.1864 162.745 43.0765C161.709 41.9666 161.191 40.5571 161.191 38.8478V38.4039C161.191 36.6207 161.68 35.1519 162.656 33.9976C163.64 32.8433 164.958 32.2699 166.608 32.2773C168.228 32.2773 169.486 32.7656 170.381 33.7423C171.277 34.719 171.724 36.0398 171.724 37.7047V39.4694H164.554L164.532 39.536C164.591 40.3277 164.854 40.9788 165.32 41.4894C165.794 41.9999 166.434 42.2552 167.24 42.2552C167.958 42.2552 168.554 42.1849 169.027 42.0443C169.501 41.8964 170.019 41.667 170.581 41.3562L171.458 43.354C170.962 43.7462 170.318 44.0754 169.527 44.3418C168.742 44.6082 167.865 44.7414 166.896 44.7414ZM166.608 34.7745C166.008 34.7745 165.535 35.0039 165.187 35.4627C164.839 35.9214 164.625 36.5245 164.543 37.2718L164.576 37.3273H168.55V37.0387C168.55 36.3506 168.387 35.803 168.062 35.3961C167.743 34.9817 167.259 34.7745 166.608 34.7745ZM173.444 42.566L175.009 42.233V34.7745H173.223V32.4992H175.009V31.1674C175.009 29.8207 175.398 28.7848 176.175 28.0597C176.952 27.3271 178.043 26.9609 179.449 26.9609C179.723 26.9609 180 26.9831 180.281 27.0275C180.57 27.0645 180.884 27.12 181.225 27.194L180.947 29.6024C180.77 29.5728 180.596 29.5469 180.426 29.5247C180.263 29.5025 180.071 29.4914 179.849 29.4914C179.323 29.4914 178.924 29.6357 178.65 29.9243C178.384 30.2129 178.25 30.6272 178.25 31.1674V32.4992H180.637V34.7745H178.25V42.233L179.815 42.566V44.5083H173.444V42.566ZM194.91 28.3482C196.76 28.3482 198.217 28.8255 199.283 29.78C200.356 30.7271 200.892 31.9702 200.892 33.5093C200.892 35.0557 200.356 36.2988 199.283 37.2385C198.217 38.1782 196.76 38.6481 194.91 38.6481H192.18V42.233L193.911 42.566V44.5083H187.218V42.566L188.939 42.233V30.6346L187.218 30.3017V28.3482H188.939H194.91ZM192.18 36.1508H194.91C195.813 36.1508 196.493 35.9066 196.952 35.4183C197.418 34.9225 197.651 34.2936 197.651 33.5315C197.651 32.7545 197.418 32.1145 196.952 31.6113C196.493 31.1008 195.813 30.8455 194.91 30.8455H192.18V36.1508ZM202.257 42.566L203.811 42.233V34.7856L202.091 34.4527V32.4992H206.83L206.974 34.2529C207.256 33.6313 207.618 33.1467 208.062 32.7989C208.506 32.4512 209.02 32.2773 209.605 32.2773C209.775 32.2773 209.953 32.2921 210.138 32.3217C210.33 32.3439 210.489 32.3735 210.615 32.4105L210.271 35.3628L208.939 35.3295C208.465 35.3295 208.073 35.422 207.762 35.607C207.452 35.7919 207.215 36.0546 207.052 36.395V42.233L208.606 42.566V44.5083H202.257V42.566ZM211.358 38.3928C211.358 36.6022 211.858 35.1371 212.857 33.9976C213.863 32.8507 215.251 32.2773 217.019 32.2773C218.795 32.2773 220.182 32.847 221.181 33.9865C222.187 35.126 222.69 36.5948 222.69 38.3928V38.6259C222.69 40.4313 222.187 41.9037 221.181 43.0432C220.182 44.1753 218.802 44.7414 217.041 44.7414C215.258 44.7414 213.863 44.1753 212.857 43.0432C211.858 41.9037 211.358 40.4313 211.358 38.6259V38.3928ZM214.599 38.6259C214.599 39.721 214.792 40.6015 215.177 41.2674C215.561 41.9259 216.183 42.2552 217.041 42.2552C217.877 42.2552 218.488 41.9222 218.872 41.2563C219.265 40.5904 219.461 39.7136 219.461 38.6259V38.3928C219.461 37.3273 219.265 36.4579 218.872 35.7845C218.48 35.1112 217.862 34.7745 217.019 34.7745C216.175 34.7745 215.561 35.1112 215.177 35.7845C214.792 36.4579 214.599 37.3273 214.599 38.3928V38.6259ZM224.3 38.6037C224.3 36.7094 224.71 35.1815 225.532 34.0198C226.361 32.8581 227.519 32.2773 229.006 32.2773C229.679 32.2773 230.271 32.429 230.782 32.7323C231.292 33.0283 231.729 33.4538 232.091 34.0087L232.324 32.4992H235.143V44.1531C235.143 45.7366 234.644 46.9982 233.645 47.9379C232.654 48.885 231.288 49.3585 229.55 49.3585C228.943 49.3585 228.299 49.2734 227.618 49.1033C226.938 48.9405 226.309 48.7148 225.732 48.4262L226.331 46.1509C226.849 46.3729 227.367 46.5468 227.885 46.6726C228.403 46.8058 228.95 46.8724 229.527 46.8724C230.319 46.8724 230.911 46.6319 231.303 46.1509C231.695 45.67 231.892 45.0004 231.892 44.142V43.354C231.536 43.8054 231.118 44.1494 230.637 44.3862C230.156 44.623 229.605 44.7414 228.984 44.7414C227.511 44.7414 226.361 44.2012 225.532 43.1209C224.71 42.0332 224.3 40.6052 224.3 38.8367V38.6037ZM227.541 38.8367C227.541 39.8874 227.718 40.7162 228.073 41.3229C228.429 41.9222 229.006 42.2219 229.805 42.2219C230.301 42.2219 230.719 42.1331 231.059 41.9555C231.407 41.7706 231.684 41.5042 231.892 41.1564V35.9399C231.684 35.5774 231.407 35.2962 231.059 35.0964C230.719 34.8966 230.308 34.7967 229.827 34.7967C229.035 34.7967 228.455 35.1482 228.085 35.8511C227.722 36.5541 227.541 37.4716 227.541 38.6037V38.8367ZM237.33 42.566L238.884 42.233V34.7856L237.164 34.4527V32.4992H241.903L242.047 34.2529C242.328 33.6313 242.691 33.1467 243.135 32.7989C243.579 32.4512 244.093 32.2773 244.677 32.2773C244.848 32.2773 245.025 32.2921 245.21 32.3217C245.403 32.3439 245.562 32.3735 245.687 32.4105L245.343 35.3628L244.012 35.3295C243.538 35.3295 243.146 35.422 242.835 35.607C242.524 35.7919 242.288 36.0546 242.125 36.395V42.233L243.679 42.566V44.5083H237.33V42.566ZM254.078 44.5083C253.989 44.3085 253.912 44.105 253.845 43.8979C253.779 43.6833 253.727 43.4687 253.69 43.2541C253.305 43.6981 252.835 44.0569 252.28 44.3307C251.733 44.6045 251.104 44.7414 250.393 44.7414C249.217 44.7414 248.281 44.4232 247.585 43.7869C246.897 43.1431 246.553 42.27 246.553 41.1675C246.553 40.0428 247.005 39.1734 247.907 38.5593C248.81 37.9451 250.134 37.6381 251.881 37.6381H253.534V36.4616C253.534 35.8844 253.368 35.4368 253.035 35.1186C252.702 34.8004 252.21 34.6413 251.559 34.6413C251.189 34.6413 250.86 34.6857 250.571 34.7745C250.282 34.8559 250.049 34.9558 249.872 35.0742L249.661 36.3617H247.219L247.23 33.6979C247.822 33.2984 248.499 32.9617 249.261 32.6879C250.031 32.4142 250.867 32.2773 251.77 32.2773C253.257 32.2773 254.463 32.6435 255.388 33.3761C256.32 34.1012 256.786 35.1371 256.786 36.4838V41.445C256.786 41.63 256.786 41.8039 256.786 41.9666C256.794 42.1294 256.809 42.2848 256.831 42.4328L257.819 42.566V44.5083H254.078ZM251.27 42.344C251.759 42.344 252.203 42.2404 252.602 42.0332C253.002 41.8187 253.312 41.5523 253.534 41.2341V39.4028H251.881C251.193 39.4028 250.671 39.5656 250.316 39.8911C249.961 40.2093 249.783 40.5941 249.783 41.0454C249.783 41.4524 249.912 41.7706 250.171 41.9999C250.438 42.2293 250.804 42.344 251.27 42.344ZM258.551 34.4527V32.4992H263.29L263.424 34.0864C263.808 33.5093 264.289 33.0653 264.866 32.7545C265.451 32.4364 266.124 32.2773 266.886 32.2773C267.656 32.2773 268.315 32.4475 268.862 32.7878C269.41 33.1282 269.824 33.6424 270.105 34.3306C270.475 33.6868 270.956 33.1837 271.548 32.8211C272.14 32.4586 272.835 32.2773 273.635 32.2773C274.819 32.2773 275.751 32.6879 276.432 33.5093C277.12 34.3232 277.464 35.5663 277.464 37.2385V42.233L279.029 42.566V44.5083H272.824V42.566L274.223 42.233V37.2274C274.223 36.3173 274.075 35.6846 273.779 35.3295C273.483 34.9743 273.043 34.7967 272.458 34.7967C271.999 34.7967 271.6 34.9003 271.259 35.1075C270.926 35.3073 270.66 35.5885 270.46 35.951C270.46 36.0916 270.464 36.2137 270.471 36.3173C270.479 36.4135 270.483 36.5134 270.483 36.617V42.233L271.792 42.566V44.5083H265.943V42.566L267.253 42.233V37.2274C267.253 36.3395 267.105 35.7142 266.809 35.3517C266.513 34.9817 266.069 34.7967 265.477 34.7967C265.04 34.7967 264.656 34.8818 264.323 35.052C263.997 35.2148 263.727 35.4479 263.512 35.7512V42.233L264.911 42.566V44.5083H258.718V42.566L260.283 42.233V34.7856L258.551 34.4527Z" fill="#38420E"/>
<defs>
<linearGradient id="paint0_linear" x1="29.0396" y1="19.959" x2="47.4461" y2="31.5461" gradientUnits="userSpaceOnUse">
<stop stop-color="#56660E"/>
<stop offset="1" stop-color="#9A541D"/>
</linearGradient>
</defs>
</svg>
