<svg width="954" height="209" viewBox="0 0 954 209" fill="none" xmlns="http://www.w3.org/2000/svg">
<path d="M62.9592 0.352945C47.1334 0.262526 31.3716 6.44621 19.2257 18.8886C-5.11622 43.8088 -5.34856 84.4761 18.707 109.673L109.902 205.392C110.639 206.174 111.527 206.8 112.501 207.227C113.483 207.654 114.523 207.881 115.586 207.887C116.649 207.893 117.705 207.685 118.678 207.262C119.664 206.847 120.552 206.231 121.306 205.457L213.716 110.787C238.029 85.888 238.404 45.3286 214.362 20.132C213.98 19.7444 213.561 19.3922 213.113 19.0899C201.206 7.2381 185.827 1.24765 170.43 1.15967C154.611 1.06929 138.771 7.20971 126.639 19.6308L118.454 27.9918L118.475 28.0133L116.682 29.8088L114.902 27.9929L114.923 27.9716L106.841 19.5177C94.8168 6.9229 78.9346 0.472768 63.0733 0.353597C63.0377 0.353393 63.002 0.35319 62.9592 0.352945ZM212.576 21.9418L212.562 21.9274L214.355 20.1248L212.576 21.9418Z" fill="#DFD7C5"/>
<path fill-rule="evenodd" clip-rule="evenodd" d="M231.609 57.9637L1.27518 56.6477C-0.93714 75.4199 4.85732 95.0189 18.6925 109.5L109.81 205.068C110.546 205.849 111.433 206.474 112.407 206.9C113.388 207.326 114.427 207.553 115.489 207.559C116.551 207.565 117.607 207.358 118.578 206.936C119.564 206.521 120.451 205.906 121.204 205.134L213.535 110.613C227.54 96.2817 233.595 76.7537 231.609 57.9637Z" fill="white"/>
<path d="M1.33784 74.0954C12.5844 71.3169 29.5063 68.0308 42.5678 65.6535L0.810222 65.415C0.793696 68.3074 0.969529 71.2079 1.33784 74.0954ZM13.3666 104.041C28.6024 97.7748 48.2877 89.7571 53.8497 87.8771C60.5041 85.6196 68.9018 81.3253 74.3049 78.5774C76.5561 77.4319 78.2857 76.5463 79.1572 76.1746C81.2859 75.2842 96.6054 69.3309 105.161 66.0112L73.3088 65.8292C54.3702 70.3617 19.685 79.5304 3.36989 83.8789C5.44555 91.019 8.77706 97.8677 13.3666 104.041ZM43.6969 136.195C52.1966 130.26 73.3354 113.552 73.3354 113.552C73.3354 113.552 89.2529 100.218 96.6131 97.9076C100.882 96.5746 104.529 93.0775 108.356 89.4109C111.114 86.7616 113.98 84.0134 117.242 81.9284C123.014 78.2232 134.333 70.1363 139.8 66.202L120.746 66.0931C100.067 73.359 82.0969 83.0069 69.9525 89.5113C63.6979 92.8726 58.9945 95.3971 56.2599 96.3409C51.8187 97.872 35.4569 105.404 20.6448 112.348L43.6969 136.195ZM76.7801 170.44C79.3994 167.243 82.0083 163.378 84.8903 159.094C89.6193 152.093 95.0958 143.973 102.582 135.864C110.778 126.999 115.959 120.611 121.097 114.287C123.423 111.414 125.741 108.557 128.338 105.48C134.975 97.5937 143.013 88.7916 150.6 80.4845L150.6 80.4773C155.161 75.4789 159.564 70.6643 163.401 66.3368L149.834 66.2593C141.723 72.6944 118.643 91.0687 113.335 95.999C109.33 99.7143 93.3661 112.444 79.3708 123.607C70.7517 130.48 62.8771 136.76 58.9964 139.978C56.9844 141.644 54.7936 143.43 52.4813 145.285L76.7801 170.44ZM142.05 183.833C146.118 166.594 151.463 147.77 155.166 139.526C160.081 128.574 163.463 119.056 166.411 110.758C167.664 107.24 168.83 103.935 170.009 100.843C173.323 92.1416 175.222 85.3085 177.026 78.809C178.176 74.6794 179.282 70.6845 180.696 66.4356L170.734 66.3787C165.962 75.8746 158.586 83.4723 152.686 89.5576C148.572 93.7982 145.181 97.2967 143.875 100.196C142.25 103.825 136.051 111.202 129.709 118.763C123.172 126.544 116.478 134.515 114.451 138.781C112.057 143.792 102.815 156.184 96.4237 164.746L96.4165 164.753C93.422 168.766 91.0594 171.936 90.3115 173.119C88.8517 175.442 87.4063 177.722 85.9825 179.959L109.899 204.714C110.643 205.486 111.53 206.102 112.504 206.52C113.485 206.945 114.531 207.171 115.593 207.177C116.654 207.183 117.703 206.976 118.682 206.555C119.668 206.149 120.555 205.542 121.307 204.779L142.05 183.833ZM204.923 120.309L159.417 166.286C162.925 150.955 167.752 135.54 171.802 122.586C174.517 113.91 176.883 106.34 178.277 100.648C179.743 94.687 182.094 86.0443 185.406 73.8536L185.406 73.8465C186.033 71.5191 186.702 69.071 187.401 66.481L197.42 66.5383C197.995 73.2078 199.73 92.527 200.585 96.2487C202.574 104.859 203.875 112.947 204.923 120.309ZM228.004 89.1777C226.686 86.6473 225.616 84.4167 224.616 82.3216C222.081 77.0125 219.961 72.5871 215.37 66.6408L204.068 66.5763C205.603 74.9498 210.944 104.133 212.642 112.514L213.71 111.44C220.161 104.917 224.929 97.3046 228.004 89.1777ZM232.166 66.7368L224.541 66.6932C226.92 69.3079 229.268 72.5265 231.487 75.7089C231.918 72.7335 232.149 69.7358 232.166 66.7368ZM231.143 54.8981C231.578 57.3169 231.871 59.7562 232.028 62.1947L1.00006 60.8748C1.23069 57.9268 1.65367 54.9869 2.28306 52.0909C8.87073 49.0442 15.585 46.2967 22.4186 43.8554C37.9203 38.4433 55.6737 44.2729 67.993 48.3231C70.0628 49.003 71.9761 49.6322 73.7048 50.1537C81.808 52.4956 90.13 53.9716 98.5427 54.5313C100.416 54.6486 104.899 53.3666 109.924 51.9313C116.333 50.1059 123.621 48.0155 127.51 48.2651C131.079 48.4845 135.319 49.8022 139.416 51.0693C143.279 52.264 147.007 53.4224 149.927 53.5883C162.793 54.3299 177.574 50.2568 182.224 47.1493C187.932 43.3229 203.305 39.2958 214.001 45.5683C222.247 50.4126 227.426 53.1072 231.143 54.8981Z" fill="url(#paint0_linear)"/>
<path d="M291.151 101.855L300.68 101.095V27.8426L291.151 27.0826V21.8795H354.991V40.5873H348.794L348.268 27.8426H307.637V61.1074H343.182V67.129H307.637V101.095L317.166 101.855V107H291.151V101.855ZM407.899 107C407.432 104.856 407.1 103.005 406.905 101.446C406.711 99.8871 406.613 98.3087 406.613 96.7107C404.275 100.024 401.157 102.771 397.259 104.954C393.362 107.136 388.977 108.228 384.105 108.228C377.908 108.228 373.114 106.63 369.724 103.434C366.333 100.238 364.637 95.9117 364.637 90.4553C364.637 84.6091 367.151 79.9711 372.179 76.5413C377.207 73.1116 384.027 71.3967 392.641 71.3967H406.613V63.0366C406.613 58.5156 405.152 54.9689 402.228 52.3966C399.344 49.8242 395.291 48.5381 390.068 48.5381C386.561 48.5381 383.345 49.0253 380.422 49.9996C377.538 50.935 375.122 52.2212 373.173 53.8581L372.588 62.3351H366.801L366.859 50.175C369.782 47.9145 373.27 46.0827 377.324 44.6796C381.416 43.2765 385.762 42.575 390.361 42.575C397.337 42.575 402.949 44.3483 407.198 47.895C411.446 51.4417 413.57 56.5279 413.57 63.1536V94.2553C413.57 95.5415 413.59 96.7887 413.629 97.9969C413.706 99.1661 413.843 100.316 414.038 101.446L420.352 101.855V107H407.899ZM384.865 102.031C389.932 102.031 394.395 100.861 398.253 98.523C402.112 96.1845 404.898 93.164 406.613 89.4614V76.7752H392.524C386.171 76.7752 381.085 78.1003 377.265 80.7506C373.485 83.3619 371.594 86.6747 371.594 90.6891C371.594 94.0799 372.764 96.8276 375.102 98.9323C377.48 100.998 380.734 102.031 384.865 102.031ZM445.432 43.7442L446.309 54.2674V55.0274C448.102 51.1299 450.537 48.0899 453.616 45.9073C456.734 43.6857 460.418 42.575 464.666 42.575C465.562 42.575 466.42 42.6529 467.238 42.8088C468.096 42.9257 468.797 43.0622 469.343 43.218L468.407 49.7658L463.204 49.415C458.8 49.415 455.175 50.6622 452.33 53.1566C449.524 55.612 447.517 59.0028 446.309 63.3289V101.095L455.838 101.855V107H429.822V101.855L439.352 101.095V49.7073L429.822 48.9473V43.7442H439.352H445.432ZM476.943 48.9473V43.7442H492.669L493.312 54.2089C495.339 50.5063 498.048 47.6417 501.438 45.615C504.829 43.5883 508.863 42.575 513.54 42.575C518.373 42.575 522.407 43.7637 525.642 46.1411C528.876 48.4796 531.195 52.0653 532.599 56.8981C534.508 52.455 537.217 48.9668 540.725 46.4335C544.271 43.8611 548.578 42.575 553.645 42.575C560.387 42.575 565.591 44.816 569.254 49.2981C572.957 53.7802 574.808 60.7177 574.808 70.1105V101.037L584.337 101.855V107H558.205V101.855L567.734 101.037V69.9936C567.734 62.1987 566.351 56.7033 563.583 53.5073C560.855 50.2725 557.036 48.655 552.125 48.655C546.668 48.655 542.459 50.3894 539.497 53.8581C536.574 57.3269 534.762 61.7505 534.06 67.129C534.06 67.4408 534.06 67.7331 534.06 68.0059C534.099 68.2787 534.119 68.6295 534.119 69.0582V101.095L543.648 101.855V107H517.574V101.855L527.103 101.095V69.9936C527.103 62.3546 525.7 56.8981 522.894 53.6243C520.127 50.3114 516.307 48.655 511.435 48.655C506.447 48.655 502.491 49.9217 499.568 52.455C496.683 54.9494 494.657 58.3207 493.487 62.5689V101.095L503.017 101.855V107H476.943V101.855L486.472 101.095V49.7073L476.943 48.9473ZM620.642 101.855L630.171 101.095V27.8426L620.642 27.0826V21.8795H684.483V40.5873H678.286L677.759 27.8426H637.128V61.1074H672.673V67.129H637.128V101.095L646.658 101.855V107H620.642V101.855ZM709.329 43.7442L710.206 54.2674V55.0274C711.999 51.1299 714.435 48.0899 717.514 45.9073C720.632 43.6857 724.315 42.575 728.563 42.575C729.459 42.575 730.317 42.6529 731.135 42.8088C731.993 42.9257 732.694 43.0622 733.24 43.218L732.304 49.7658L727.101 49.415C722.697 49.415 719.073 50.6622 716.227 53.1566C713.421 55.612 711.414 59.0028 710.206 63.3289V101.095L719.735 101.855V107H693.72V101.855L703.249 101.095V49.7073L693.72 48.9473V43.7442H703.249H709.329ZM769.077 108.228C761.126 108.228 754.539 105.324 749.317 99.5169C744.094 93.6707 741.483 86.246 741.483 77.2429V74.0275C741.483 64.9854 744.075 57.4828 749.258 51.5196C754.481 45.5565 760.775 42.575 768.142 42.575C775.898 42.575 781.997 45.0304 786.44 49.9412C790.883 54.852 793.105 61.3997 793.105 69.5844V75.5475H748.44V77.2429C748.44 84.3363 750.33 90.2994 754.111 95.1322C757.93 99.9261 762.919 102.323 769.077 102.323C773.403 102.323 777.106 101.719 780.185 100.511C783.264 99.3025 785.895 97.5681 788.077 95.3076L791.059 100.101C788.681 102.596 785.68 104.584 782.056 106.065C778.431 107.507 774.105 108.228 769.077 108.228ZM768.142 48.5381C762.997 48.5381 758.651 50.5258 755.105 54.5012C751.597 58.4376 749.551 63.3874 748.966 69.3505L749.083 69.6428H786.148V67.889C786.148 62.3936 784.53 57.7946 781.296 54.092C778.061 50.3894 773.676 48.5381 768.142 48.5381ZM851.508 63.2705H845.779L844.961 54.3258C843.207 52.494 840.985 51.0714 838.296 50.0581C835.646 49.0448 832.586 48.5381 829.117 48.5381C824.012 48.5381 820.173 49.6489 817.6 51.8704C815.067 54.053 813.8 56.6253 813.8 59.5874C813.8 62.5105 814.892 64.9269 817.074 66.8367C819.296 68.7464 823.7 70.4223 830.287 71.8644C837.809 73.5403 843.441 75.8398 847.182 78.7629C850.924 81.647 852.794 85.5835 852.794 90.5722C852.794 95.8338 850.651 100.101 846.364 103.375C842.115 106.61 836.484 108.228 829.468 108.228C824.791 108.228 820.523 107.585 816.665 106.298C812.845 104.973 809.533 103.122 806.726 100.745V87.9999H812.397L813.391 97.003C815.262 98.8738 817.62 100.238 820.465 101.095C823.349 101.914 826.35 102.323 829.468 102.323C834.535 102.323 838.53 101.212 841.453 98.9907C844.376 96.7692 845.837 94.0799 845.837 90.923C845.837 87.9609 844.61 85.3691 842.154 83.1475C839.738 80.926 835.353 79.1137 829 77.7106C821.478 76.0736 815.886 73.9106 812.222 71.2213C808.597 68.4931 806.785 64.6931 806.785 59.8212C806.785 54.9884 808.831 50.9155 812.923 47.6027C817.016 44.2509 822.414 42.575 829.117 42.575C833.755 42.575 837.984 43.296 841.804 44.7381C845.662 46.1411 848.8 48.0509 851.216 50.4673L851.508 63.2705ZM863.551 21.0025V15.7994H880.038V54.5597C882.142 50.7791 884.948 47.8365 888.456 45.7319C891.964 43.6273 896.056 42.575 900.733 42.575C907.398 42.575 912.504 44.6406 916.05 48.7719C919.636 52.9032 921.429 59.3146 921.429 68.0059V101.095L930.958 101.855V107H904.884V101.855L914.413 101.095V67.889C914.413 61.0294 913.049 56.1186 910.321 53.1566C907.632 50.1555 903.91 48.655 899.155 48.655C894.361 48.655 890.346 49.9217 887.112 52.455C883.916 54.9494 881.558 58.2817 880.038 62.452V101.095L889.567 101.855V107H863.551V101.855L873.081 101.095V21.7625L863.551 21.0025Z" fill="#38420E"/>
<path d="M288.832 187.275L293.903 186.293V152.106L288.832 151.125V145.367H326.749V158.42H319.42L318.995 152.728H303.456V165.847H320.14V173.208H303.456V186.293L308.559 187.275V193H288.832V187.275ZM329.758 174.974C329.758 169.696 331.23 165.378 334.175 162.019C337.141 158.639 341.23 156.948 346.443 156.948C351.677 156.948 355.767 158.628 358.711 161.986C361.677 165.345 363.16 169.674 363.16 174.974V175.661C363.16 180.983 361.677 185.323 358.711 188.682C355.767 192.019 351.699 193.687 346.508 193.687C341.252 193.687 337.141 192.019 334.175 188.682C331.23 185.323 329.758 180.983 329.758 175.661V174.974ZM339.311 175.661C339.311 178.889 339.878 181.484 341.012 183.447C342.146 185.388 343.978 186.359 346.508 186.359C348.973 186.359 350.772 185.377 351.906 183.415C353.062 181.452 353.64 178.867 353.64 175.661V174.974C353.64 171.833 353.062 169.271 351.906 167.286C350.75 165.301 348.929 164.309 346.443 164.309C343.957 164.309 342.146 165.301 341.012 167.286C339.878 169.271 339.311 171.833 339.311 174.974V175.661ZM367.315 174.974C367.315 169.696 368.787 165.378 371.731 162.019C374.698 158.639 378.787 156.948 384 156.948C389.234 156.948 393.323 158.628 396.268 161.986C399.234 165.345 400.717 169.674 400.717 174.974V175.661C400.717 180.983 399.234 185.323 396.268 188.682C393.323 192.019 389.256 193.687 384.065 193.687C378.809 193.687 374.698 192.019 371.731 188.682C368.787 185.323 367.315 180.983 367.315 175.661V174.974ZM376.868 175.661C376.868 178.889 377.435 181.484 378.569 183.447C379.703 185.388 381.535 186.359 384.065 186.359C386.529 186.359 388.329 185.377 389.463 183.415C390.619 181.452 391.197 178.867 391.197 175.661V174.974C391.197 171.833 390.619 169.271 389.463 167.286C388.307 165.301 386.486 164.309 384 164.309C381.513 164.309 379.703 165.301 378.569 167.286C377.435 169.271 376.868 171.833 376.868 174.974V175.661ZM427.903 188.682C426.791 190.317 425.471 191.561 423.944 192.411C422.439 193.262 420.716 193.687 418.775 193.687C414.413 193.687 411.022 192.095 408.601 188.911C406.202 185.726 405.002 181.517 405.002 176.283V175.596C405.002 170.012 406.213 165.509 408.634 162.084C411.055 158.66 414.457 156.948 418.841 156.948C420.607 156.948 422.2 157.341 423.617 158.126C425.035 158.889 426.278 159.98 427.347 161.397V148.704L422.243 147.723V141.965H427.347H436.899V186.293L441.479 187.275V193H428.623L427.903 188.682ZM414.555 176.283C414.555 179.38 415.068 181.822 416.093 183.611C417.14 185.377 418.841 186.261 421.196 186.261C422.592 186.261 423.803 185.977 424.828 185.41C425.853 184.843 426.692 184.025 427.347 182.957V167.94C426.692 166.806 425.853 165.934 424.828 165.323C423.824 164.691 422.636 164.375 421.262 164.375C418.928 164.375 417.227 165.41 416.158 167.482C415.09 169.554 414.555 172.259 414.555 175.596V176.283ZM482.111 145.367C487.52 145.367 491.762 146.61 494.837 149.097C497.913 151.561 499.45 154.974 499.45 159.336C499.45 161.736 498.807 163.818 497.52 165.585C496.233 167.352 494.347 168.78 491.86 169.871C494.674 170.699 496.691 172.084 497.913 174.025C499.156 175.945 499.777 178.333 499.777 181.19V183.611C499.777 184.658 499.985 185.476 500.399 186.064C500.813 186.632 501.5 186.97 502.46 187.079L503.638 187.242V193H498.698C495.579 193 493.387 192.16 492.122 190.481C490.857 188.802 490.225 186.632 490.225 183.971V181.255C490.225 178.944 489.603 177.133 488.36 175.825C487.139 174.494 485.405 173.796 483.158 173.731H475.339V186.293L480.443 187.275V193H460.716V187.275L465.787 186.293V152.106L460.716 151.125V145.367H465.787H482.111ZM475.339 166.37H481.948C484.609 166.37 486.604 165.803 487.935 164.669C489.265 163.535 489.93 161.899 489.93 159.762C489.93 157.624 489.265 155.923 487.935 154.658C486.626 153.371 484.685 152.728 482.111 152.728H475.339V166.37ZM523.954 193.687C518.85 193.687 514.772 192.051 511.718 188.78C508.665 185.508 507.138 181.354 507.138 176.315V175.007C507.138 169.751 508.578 165.421 511.457 162.019C514.357 158.617 518.239 156.926 523.103 156.948C527.879 156.948 531.587 158.388 534.226 161.267C536.865 164.146 538.185 168.039 538.185 172.946V178.147H517.051L516.985 178.344C517.16 180.677 517.934 182.597 519.308 184.102C520.704 185.606 522.59 186.359 524.968 186.359C527.083 186.359 528.839 186.152 530.235 185.737C531.631 185.301 533.157 184.625 534.815 183.709L537.399 189.598C535.938 190.754 534.041 191.724 531.707 192.509C529.395 193.294 526.811 193.687 523.954 193.687ZM523.103 164.309C521.336 164.309 519.941 164.985 518.916 166.337C517.89 167.69 517.258 169.467 517.018 171.67L517.116 171.833H528.828V170.983C528.828 168.955 528.348 167.341 527.389 166.141C526.451 164.92 525.022 164.309 523.103 164.309ZM541.718 147.723V141.965H556.374V186.293L560.987 187.275V193H542.208V187.275L546.821 186.293V148.704L541.718 147.723ZM563.833 187.275L568.446 186.293V164.342L563.342 163.36V157.603H577.999V186.293L582.579 187.275V193H563.833V187.275ZM577.999 149.129H568.446V141.965H577.999V149.129ZM602.666 193.687C597.562 193.687 593.484 192.051 590.43 188.78C587.377 185.508 585.85 181.354 585.85 176.315V175.007C585.85 169.751 587.29 165.421 590.168 162.019C593.069 158.617 596.951 156.926 601.815 156.948C606.591 156.948 610.299 158.388 612.938 161.267C615.577 164.146 616.896 168.039 616.896 172.946V178.147H595.763L595.697 178.344C595.872 180.677 596.646 182.597 598.02 184.102C599.416 185.606 601.302 186.359 603.68 186.359C605.795 186.359 607.551 186.152 608.947 185.737C610.343 185.301 611.869 184.625 613.527 183.709L616.111 189.598C614.65 190.754 612.753 191.724 610.419 192.509C608.107 193.294 605.523 193.687 602.666 193.687ZM601.815 164.309C600.048 164.309 598.653 164.985 597.627 166.337C596.602 167.69 595.97 169.467 595.73 171.67L595.828 171.833H607.54V170.983C607.54 168.955 607.06 167.341 606.101 166.141C605.163 164.92 603.734 164.309 601.815 164.309ZM621.967 187.275L626.58 186.293V164.309H621.313V157.603H626.58V153.677C626.58 149.707 627.725 146.654 630.015 144.517C632.305 142.357 635.522 141.278 639.666 141.278C640.473 141.278 641.291 141.343 642.12 141.474C642.97 141.583 643.897 141.747 644.9 141.965L644.083 149.064C643.559 148.977 643.047 148.9 642.545 148.835C642.065 148.77 641.498 148.737 640.844 148.737C639.295 148.737 638.118 149.162 637.311 150.013C636.525 150.863 636.133 152.085 636.133 153.677V157.603H643.167V164.309H636.133V186.293L640.746 187.275V193H621.967V187.275ZM685.238 145.367C690.69 145.367 694.987 146.774 698.127 149.587C701.29 152.379 702.871 156.043 702.871 160.58C702.871 165.138 701.29 168.802 698.127 171.572C694.987 174.342 690.69 175.727 685.238 175.727H677.19V186.293L682.293 187.275V193H662.566V187.275L667.637 186.293V152.106L662.566 151.125V145.367H667.637H685.238ZM677.19 168.366H685.238C687.899 168.366 689.905 167.646 691.257 166.207C692.631 164.745 693.318 162.891 693.318 160.645C693.318 158.355 692.631 156.468 691.257 154.985C689.905 153.48 687.899 152.728 685.238 152.728H677.19V168.366ZM706.895 187.275L711.475 186.293V164.342L706.404 163.36V157.603H720.374L720.799 162.771C721.628 160.939 722.696 159.511 724.005 158.486C725.313 157.461 726.829 156.948 728.552 156.948C729.054 156.948 729.577 156.992 730.123 157.079C730.69 157.145 731.159 157.232 731.529 157.341L730.515 166.043L726.589 165.945C725.194 165.945 724.038 166.217 723.122 166.763C722.206 167.308 721.508 168.082 721.028 169.085V186.293L725.608 187.275V193H706.895V187.275ZM733.721 174.974C733.721 169.696 735.193 165.378 738.138 162.019C741.104 158.639 745.193 156.948 750.406 156.948C755.64 156.948 759.729 158.628 762.674 161.986C765.64 165.345 767.123 169.674 767.123 174.974V175.661C767.123 180.983 765.64 185.323 762.674 188.682C759.729 192.019 755.662 193.687 750.471 193.687C745.215 193.687 741.104 192.019 738.138 188.682C735.193 185.323 733.721 180.983 733.721 175.661V174.974ZM743.274 175.661C743.274 178.889 743.841 181.484 744.975 183.447C746.109 185.388 747.941 186.359 750.471 186.359C752.936 186.359 754.735 185.377 755.869 183.415C757.025 181.452 757.603 178.867 757.603 175.661V174.974C757.603 171.833 757.025 169.271 755.869 167.286C754.713 165.301 752.892 164.309 750.406 164.309C747.919 164.309 746.109 165.301 744.975 167.286C743.841 169.271 743.274 171.833 743.274 174.974V175.661ZM771.867 175.596C771.867 170.012 773.077 165.509 775.498 162.084C777.941 158.66 781.354 156.948 785.738 156.948C787.722 156.948 789.467 157.395 790.972 158.29C792.477 159.162 793.764 160.416 794.833 162.052L795.52 157.603H803.829V191.953C803.829 196.62 802.357 200.339 799.413 203.109C796.49 205.901 792.466 207.296 787.341 207.296C785.552 207.296 783.655 207.046 781.648 206.544C779.642 206.064 777.788 205.399 776.087 204.548L777.854 197.842C779.38 198.496 780.907 199.009 782.434 199.379C783.96 199.772 785.574 199.968 787.275 199.968C789.609 199.968 791.354 199.259 792.51 197.842C793.666 196.424 794.244 194.45 794.244 191.92V189.598C793.197 190.928 791.965 191.942 790.547 192.64C789.129 193.338 787.504 193.687 785.672 193.687C781.332 193.687 777.941 192.095 775.498 188.911C773.077 185.705 771.867 181.495 771.867 176.283V175.596ZM781.419 176.283C781.419 179.38 781.943 181.822 782.99 183.611C784.037 185.377 785.738 186.261 788.093 186.261C789.555 186.261 790.787 185.999 791.79 185.476C792.815 184.93 793.633 184.145 794.244 183.12V167.744C793.633 166.675 792.815 165.847 791.79 165.258C790.787 164.669 789.576 164.375 788.159 164.375C785.825 164.375 784.113 165.41 783.022 167.482C781.954 169.554 781.419 172.259 781.419 175.596V176.283ZM810.274 187.275L814.854 186.293V164.342L809.783 163.36V157.603H823.752L824.178 162.771C825.007 160.939 826.075 159.511 827.384 158.486C828.692 157.461 830.208 156.948 831.931 156.948C832.433 156.948 832.956 156.992 833.501 157.079C834.069 157.145 834.537 157.232 834.908 157.341L833.894 166.043L829.968 165.945C828.572 165.945 827.417 166.217 826.5 166.763C825.584 167.308 824.887 168.082 824.407 169.085V186.293L828.987 187.275V193H810.274V187.275ZM859.641 193C859.379 192.411 859.15 191.811 858.954 191.201C858.757 190.568 858.605 189.936 858.496 189.303C857.361 190.612 855.977 191.67 854.341 192.477C852.727 193.284 850.873 193.687 848.779 193.687C845.312 193.687 842.553 192.749 840.502 190.874C838.474 188.976 837.46 186.403 837.46 183.153C837.46 179.838 838.79 177.275 841.451 175.465C844.112 173.655 848.016 172.75 853.163 172.75H858.038V169.282C858.038 167.581 857.547 166.261 856.565 165.323C855.584 164.385 854.134 163.917 852.214 163.917C851.124 163.917 850.153 164.047 849.303 164.309C848.452 164.549 847.765 164.843 847.242 165.192L846.62 168.987H839.423L839.456 161.136C841.2 159.958 843.196 158.966 845.442 158.159C847.711 157.352 850.175 156.948 852.836 156.948C857.22 156.948 860.775 158.028 863.501 160.187C866.249 162.324 867.623 165.378 867.623 169.347V183.971C867.623 184.516 867.623 185.028 867.623 185.508C867.645 185.988 867.688 186.446 867.754 186.882L870.666 187.275V193H859.641ZM851.364 186.621C852.803 186.621 854.112 186.315 855.29 185.705C856.467 185.072 857.383 184.287 858.038 183.349V177.951H853.163C851.135 177.951 849.597 178.431 848.55 179.391C847.503 180.328 846.98 181.463 846.98 182.793C846.98 183.993 847.362 184.93 848.125 185.606C848.91 186.283 849.99 186.621 851.364 186.621ZM872.825 163.36V157.603H886.794L887.187 162.281C888.321 160.58 889.738 159.271 891.439 158.355C893.162 157.417 895.147 156.948 897.394 156.948C899.662 156.948 901.603 157.45 903.217 158.453C904.831 159.456 906.052 160.972 906.881 163C907.971 161.103 909.389 159.62 911.134 158.551C912.879 157.483 914.929 156.948 917.284 156.948C920.774 156.948 923.522 158.159 925.528 160.58C927.557 162.979 928.571 166.643 928.571 171.572V186.293L933.184 187.275V193H914.896V187.275L919.018 186.293V171.539C919.018 168.856 918.582 166.992 917.709 165.945C916.837 164.898 915.539 164.375 913.816 164.375C912.464 164.375 911.286 164.68 910.283 165.291C909.302 165.879 908.517 166.708 907.928 167.777C907.928 168.191 907.939 168.551 907.96 168.856C907.982 169.14 907.993 169.434 907.993 169.74V186.293L911.854 187.275V193H894.613V187.275L898.473 186.293V171.539C898.473 168.922 898.037 167.079 897.165 166.01C896.292 164.92 894.984 164.375 893.239 164.375C891.952 164.375 890.818 164.625 889.836 165.127C888.877 165.607 888.081 166.294 887.448 167.188V186.293L891.57 187.275V193H873.315V187.275L877.928 186.293V164.342L872.825 163.36Z" fill="#38420E"/>
<defs>
<linearGradient id="paint0_linear" x1="128.854" y1="88.5621" x2="210.527" y2="139.976" gradientUnits="userSpaceOnUse">
<stop stop-color="#56660E"/>
<stop offset="1" stop-color="#9A541D"/>
</linearGradient>
</defs>
</svg>
