<?xml version="1.0" standalone="no"?>
<!DOCTYPE svg PUBLIC "-//W3C//DTD SVG 20010904//EN"
 "http://www.w3.org/TR/2001/REC-SVG-20010904/DTD/svg10.dtd">
<svg version="1.0" xmlns="http://www.w3.org/2000/svg"
 width="163.000000pt" height="163.000000pt" viewBox="0 0 163.000000 163.000000"
 preserveAspectRatio="xMidYMid meet">
<metadata>
Created by potrace 1.11, written by Peter Selinger 2001-2013
</metadata>
<g transform="translate(0.000000,163.000000) scale(0.100000,-0.100000)"
fill="#000000" stroke="none">
<path d="M320 1533 c-145 -42 -259 -158 -303 -309 -28 -97 -15 -236 31 -334
26 -54 43 -73 320 -359 427 -441 417 -431 443 -431 19 0 90 68 314 298 160
163 318 326 353 362 58 59 109 137 117 179 2 9 9 41 17 71 27 103 -5 259 -71
350 -133 183 -362 238 -562 134 -19 -9 -64 -46 -102 -82 l-67 -66 -49 50 c-64
65 -82 79 -138 108 -91 46 -208 57 -303 29z"/>
</g>
</svg>
